<svg width="256" height="256" viewBox="0 0 256 256" fill="none" xmlns="http://www.w3.org/2000/svg">
  <defs>
    <linearGradient id="bg" x1="36" y1="24" x2="222" y2="232" gradientUnits="userSpaceOnUse">
      <stop stop-color="#38BDF8"/>
      <stop offset="0.55" stop-color="#0EA5E9"/>
      <stop offset="1" stop-color="#155E75"/>
    </linearGradient>
    <linearGradient id="peak" x1="74" y1="62" x2="178" y2="170" gradientUnits="userSpaceOnUse">
      <stop stop-color="#F8FAFC"/>
      <stop offset="1" stop-color="#E2E8F0"/>
    </linearGradient>
    <linearGradient id="trail" x1="94" y1="118" x2="168" y2="188" gradientUnits="userSpaceOnUse">
      <stop stop-color="#BAE6FD"/>
      <stop offset="1" stop-color="#FFFFFF"/>
    </linearGradient>
  </defs>
  <rect x="20" y="20" width="216" height="216" rx="56" fill="#080808"/>
  <rect x="28" y="28" width="200" height="200" rx="48" fill="url(#bg)"/>
  <path d="M64 168L104 104L128 136L156 92L192 168H64Z" fill="#000000" fill-opacity="0.16"/>
  <path d="M69 164L109 96L128 126L154 79L187 164H69Z" fill="url(#peak)"/>
  <path d="M94 181C103 167 117 157 128 157C140 157 151 166 160 182" stroke="url(#trail)" stroke-width="13" stroke-linecap="round"/>
  <circle cx="128" cy="72" r="14" fill="#0B0B0B" fill-opacity="0.18"/>
  <circle cx="128" cy="72" r="10" fill="#F8FAFC"/>
</svg>
